M48
; DRILL file KiCad 10.0.3 date 2026-07-05T04:41:59
; FORMAT={-:-/ absolute / metric / decimal}
; #@! TF.CreationDate,2026-07-05T04:41:59+02:00
; #@! TF.GenerationSoftware,Kicad,Pcbnew,10.0.3
; #@! TF.FileFunction,Plated,1,2,PTH
FMAT,2
METRIC
; #@! TA.AperFunction,Plated,PTH,ComponentDrill
T1C0.840
; #@! TA.AperFunction,Plated,PTH,ComponentDrill
T2C0.900
%
G90
G05
T1
X136.625Y-102.115
X136.625Y-104.655
X136.625Y-107.195
X136.625Y-109.735
X136.625Y-112.275
X136.625Y-114.815
X136.625Y-117.355
X136.625Y-119.895
X151.865Y-102.115
X151.865Y-104.655
X151.865Y-107.195
X151.865Y-109.735
X151.865Y-112.275
X151.865Y-114.815
X151.865Y-117.355
X151.865Y-119.895
T2
X140.46Y-94.96
X140.46Y-97.5
X143.0Y-95.04
X143.0Y-97.58
X145.54Y-95.04
X145.54Y-97.58
X148.08Y-95.04
X148.08Y-97.58
M30
