%TF.GenerationSoftware,KiCad,Pcbnew,10.0.3*%
%TF.CreationDate,2026-07-05T04:41:56+02:00*%
%TF.ProjectId,CC1101_tools,43433131-3031-45f7-946f-6f6c732e6b69,rev?*%
%TF.SameCoordinates,Original*%
%TF.FileFunction,Legend,Top*%
%TF.FilePolarity,Positive*%
%FSLAX46Y46*%
G04 Gerber Fmt 4.6, Leading zero omitted, Abs format (unit mm)*
G04 Created by KiCad (PCBNEW 10.0.3) date 2026-07-05 04:41:56*
%MOMM*%
%LPD*%
G01*
G04 APERTURE LIST*
%ADD10C,0.050000*%
%ADD11C,0.100000*%
%ADD12C,0.120000*%
G04 APERTURE END LIST*
D10*
X138920876Y-98058333D02*
X138930400Y-98067857D01*
X138930400Y-98067857D02*
X138939923Y-98096428D01*
X138939923Y-98096428D02*
X138939923Y-98115476D01*
X138939923Y-98115476D02*
X138930400Y-98144047D01*
X138930400Y-98144047D02*
X138911352Y-98163095D01*
X138911352Y-98163095D02*
X138892304Y-98172618D01*
X138892304Y-98172618D02*
X138854209Y-98182142D01*
X138854209Y-98182142D02*
X138825638Y-98182142D01*
X138825638Y-98182142D02*
X138787542Y-98172618D01*
X138787542Y-98172618D02*
X138768495Y-98163095D01*
X138768495Y-98163095D02*
X138749447Y-98144047D01*
X138749447Y-98144047D02*
X138739923Y-98115476D01*
X138739923Y-98115476D02*
X138739923Y-98096428D01*
X138739923Y-98096428D02*
X138749447Y-98067857D01*
X138749447Y-98067857D02*
X138758971Y-98058333D01*
X138939923Y-97867857D02*
X138939923Y-97982142D01*
X138939923Y-97924999D02*
X138739923Y-97924999D01*
X138739923Y-97924999D02*
X138768495Y-97944047D01*
X138768495Y-97944047D02*
X138787542Y-97963095D01*
X138787542Y-97963095D02*
X138797066Y-97982142D01*
D11*
X148488095Y-69457419D02*
X148488095Y-70266942D01*
X148488095Y-70266942D02*
X148535714Y-70362180D01*
X148535714Y-70362180D02*
X148583333Y-70409800D01*
X148583333Y-70409800D02*
X148678571Y-70457419D01*
X148678571Y-70457419D02*
X148869047Y-70457419D01*
X148869047Y-70457419D02*
X148964285Y-70409800D01*
X148964285Y-70409800D02*
X149011904Y-70362180D01*
X149011904Y-70362180D02*
X149059523Y-70266942D01*
X149059523Y-70266942D02*
X149059523Y-69457419D01*
X149488095Y-69552657D02*
X149535714Y-69505038D01*
X149535714Y-69505038D02*
X149630952Y-69457419D01*
X149630952Y-69457419D02*
X149869047Y-69457419D01*
X149869047Y-69457419D02*
X149964285Y-69505038D01*
X149964285Y-69505038D02*
X150011904Y-69552657D01*
X150011904Y-69552657D02*
X150059523Y-69647895D01*
X150059523Y-69647895D02*
X150059523Y-69743133D01*
X150059523Y-69743133D02*
X150011904Y-69885990D01*
X150011904Y-69885990D02*
X149440476Y-70457419D01*
X149440476Y-70457419D02*
X150059523Y-70457419D01*
X138125312Y-70277180D02*
X138077693Y-70324800D01*
X138077693Y-70324800D02*
X137934836Y-70372419D01*
X137934836Y-70372419D02*
X137839598Y-70372419D01*
X137839598Y-70372419D02*
X137696741Y-70324800D01*
X137696741Y-70324800D02*
X137601503Y-70229561D01*
X137601503Y-70229561D02*
X137553884Y-70134323D01*
X137553884Y-70134323D02*
X137506265Y-69943847D01*
X137506265Y-69943847D02*
X137506265Y-69800990D01*
X137506265Y-69800990D02*
X137553884Y-69610514D01*
X137553884Y-69610514D02*
X137601503Y-69515276D01*
X137601503Y-69515276D02*
X137696741Y-69420038D01*
X137696741Y-69420038D02*
X137839598Y-69372419D01*
X137839598Y-69372419D02*
X137934836Y-69372419D01*
X137934836Y-69372419D02*
X138077693Y-69420038D01*
X138077693Y-69420038D02*
X138125312Y-69467657D01*
X139125312Y-70277180D02*
X139077693Y-70324800D01*
X139077693Y-70324800D02*
X138934836Y-70372419D01*
X138934836Y-70372419D02*
X138839598Y-70372419D01*
X138839598Y-70372419D02*
X138696741Y-70324800D01*
X138696741Y-70324800D02*
X138601503Y-70229561D01*
X138601503Y-70229561D02*
X138553884Y-70134323D01*
X138553884Y-70134323D02*
X138506265Y-69943847D01*
X138506265Y-69943847D02*
X138506265Y-69800990D01*
X138506265Y-69800990D02*
X138553884Y-69610514D01*
X138553884Y-69610514D02*
X138601503Y-69515276D01*
X138601503Y-69515276D02*
X138696741Y-69420038D01*
X138696741Y-69420038D02*
X138839598Y-69372419D01*
X138839598Y-69372419D02*
X138934836Y-69372419D01*
X138934836Y-69372419D02*
X139077693Y-69420038D01*
X139077693Y-69420038D02*
X139125312Y-69467657D01*
X140077693Y-70372419D02*
X139506265Y-70372419D01*
X139791979Y-70372419D02*
X139791979Y-69372419D01*
X139791979Y-69372419D02*
X139696741Y-69515276D01*
X139696741Y-69515276D02*
X139601503Y-69610514D01*
X139601503Y-69610514D02*
X139506265Y-69658133D01*
X141030074Y-70372419D02*
X140458646Y-70372419D01*
X140744360Y-70372419D02*
X140744360Y-69372419D01*
X140744360Y-69372419D02*
X140649122Y-69515276D01*
X140649122Y-69515276D02*
X140553884Y-69610514D01*
X140553884Y-69610514D02*
X140458646Y-69658133D01*
X141649122Y-69372419D02*
X141744360Y-69372419D01*
X141744360Y-69372419D02*
X141839598Y-69420038D01*
X141839598Y-69420038D02*
X141887217Y-69467657D01*
X141887217Y-69467657D02*
X141934836Y-69562895D01*
X141934836Y-69562895D02*
X141982455Y-69753371D01*
X141982455Y-69753371D02*
X141982455Y-69991466D01*
X141982455Y-69991466D02*
X141934836Y-70181942D01*
X141934836Y-70181942D02*
X141887217Y-70277180D01*
X141887217Y-70277180D02*
X141839598Y-70324800D01*
X141839598Y-70324800D02*
X141744360Y-70372419D01*
X141744360Y-70372419D02*
X141649122Y-70372419D01*
X141649122Y-70372419D02*
X141553884Y-70324800D01*
X141553884Y-70324800D02*
X141506265Y-70277180D01*
X141506265Y-70277180D02*
X141458646Y-70181942D01*
X141458646Y-70181942D02*
X141411027Y-69991466D01*
X141411027Y-69991466D02*
X141411027Y-69753371D01*
X141411027Y-69753371D02*
X141458646Y-69562895D01*
X141458646Y-69562895D02*
X141506265Y-69467657D01*
X141506265Y-69467657D02*
X141553884Y-69420038D01*
X141553884Y-69420038D02*
X141649122Y-69372419D01*
X142934836Y-70372419D02*
X142363408Y-70372419D01*
X142649122Y-70372419D02*
X142649122Y-69372419D01*
X142649122Y-69372419D02*
X142553884Y-69515276D01*
X142553884Y-69515276D02*
X142458646Y-69610514D01*
X142458646Y-69610514D02*
X142363408Y-69658133D01*
D10*
X138245876Y-98058333D02*
X138255400Y-98067857D01*
X138255400Y-98067857D02*
X138264923Y-98096428D01*
X138264923Y-98096428D02*
X138264923Y-98115476D01*
X138264923Y-98115476D02*
X138255400Y-98144047D01*
X138255400Y-98144047D02*
X138236352Y-98163095D01*
X138236352Y-98163095D02*
X138217304Y-98172618D01*
X138217304Y-98172618D02*
X138179209Y-98182142D01*
X138179209Y-98182142D02*
X138150638Y-98182142D01*
X138150638Y-98182142D02*
X138112542Y-98172618D01*
X138112542Y-98172618D02*
X138093495Y-98163095D01*
X138093495Y-98163095D02*
X138074447Y-98144047D01*
X138074447Y-98144047D02*
X138064923Y-98115476D01*
X138064923Y-98115476D02*
X138064923Y-98096428D01*
X138064923Y-98096428D02*
X138074447Y-98067857D01*
X138074447Y-98067857D02*
X138083971Y-98058333D01*
X138083971Y-97982142D02*
X138074447Y-97972618D01*
X138074447Y-97972618D02*
X138064923Y-97953571D01*
X138064923Y-97953571D02*
X138064923Y-97905952D01*
X138064923Y-97905952D02*
X138074447Y-97886904D01*
X138074447Y-97886904D02*
X138083971Y-97877380D01*
X138083971Y-97877380D02*
X138103019Y-97867857D01*
X138103019Y-97867857D02*
X138122066Y-97867857D01*
X138122066Y-97867857D02*
X138150638Y-97877380D01*
X138150638Y-97877380D02*
X138264923Y-97991666D01*
X138264923Y-97991666D02*
X138264923Y-97867857D01*
D11*
X145006904Y-128057580D02*
X145006904Y-127248057D01*
X145006904Y-127248057D02*
X144959285Y-127152819D01*
X144959285Y-127152819D02*
X144911666Y-127105200D01*
X144911666Y-127105200D02*
X144816428Y-127057580D01*
X144816428Y-127057580D02*
X144625952Y-127057580D01*
X144625952Y-127057580D02*
X144530714Y-127105200D01*
X144530714Y-127105200D02*
X144483095Y-127152819D01*
X144483095Y-127152819D02*
X144435476Y-127248057D01*
X144435476Y-127248057D02*
X144435476Y-128057580D01*
X143435476Y-127057580D02*
X144006904Y-127057580D01*
X143721190Y-127057580D02*
X143721190Y-128057580D01*
X143721190Y-128057580D02*
X143816428Y-127914723D01*
X143816428Y-127914723D02*
X143911666Y-127819485D01*
X143911666Y-127819485D02*
X144006904Y-127771866D01*
%TO.C,U2*%
X136750000Y-93750000D02*
X136750000Y-68750000D01*
X136750000Y-93750000D02*
X139250000Y-93750000D01*
X136750000Y-98750000D02*
X136750000Y-93750000D01*
X139250000Y-98750000D02*
X136750000Y-98750000D01*
X141250000Y-57750000D02*
X147250000Y-57750000D01*
X141250000Y-68750000D02*
X141250000Y-57750000D01*
X147250000Y-68750000D02*
X147250000Y-57750000D01*
X149250000Y-93750000D02*
X151750000Y-93750000D01*
X149250000Y-98750000D02*
X151750000Y-98750000D01*
X151750000Y-68750000D02*
X136750000Y-68750000D01*
X151750000Y-93750000D02*
X151750000Y-68750000D01*
X151750000Y-93750000D02*
X151750000Y-98750000D01*
X139250000Y-93750000D02*
X149250000Y-93750000D01*
X149250000Y-98750000D01*
X139250000Y-98750000D01*
X139250000Y-93750000D01*
%TO.C,U1*%
D12*
X135025000Y-99525000D02*
X153465000Y-99525000D01*
X153465000Y-122485000D01*
X135025000Y-122485000D01*
X135025000Y-99525000D01*
%TD*%
M02*
