%TF.GenerationSoftware,KiCad,Pcbnew,10.0.3*%
%TF.CreationDate,2026-07-05T04:41:56+02:00*%
%TF.ProjectId,CC1101_tools,43433131-3031-45f7-946f-6f6c732e6b69,rev?*%
%TF.SameCoordinates,Original*%
%TF.FileFunction,Copper,L2,Bot*%
%TF.FilePolarity,Positive*%
%FSLAX46Y46*%
G04 Gerber Fmt 4.6, Leading zero omitted, Abs format (unit mm)*
G04 Created by KiCad (PCBNEW 10.0.3) date 2026-07-05 04:41:56*
%MOMM*%
%LPD*%
G01*
G04 APERTURE LIST*
%TA.AperFunction,ComponentPad*%
%ADD10C,1.800000*%
%TD*%
%TA.AperFunction,ComponentPad*%
%ADD11C,1.140000*%
%TD*%
%TA.AperFunction,Conductor*%
%ADD12C,0.200000*%
%TD*%
G04 APERTURE END LIST*
D10*
%TO.P,U2,1,GND_1*%
%TO.N,GND*%
X140460000Y-97500000D03*
%TO.P,U2,2,VCC_2*%
%TO.N,VCC*%
X140460000Y-94960000D03*
%TO.P,U2,3,GDO0_3*%
%TO.N,GDO0*%
X143000000Y-97580000D03*
%TO.P,U2,4,CSN_4*%
%TO.N,SS*%
X143000000Y-95040000D03*
%TO.P,U2,5,SCK_5*%
%TO.N,SCK*%
X145540000Y-97580000D03*
%TO.P,U2,6,MOSI_6*%
%TO.N,MOSI*%
X145540000Y-95040000D03*
%TO.P,U2,7,MISO_7*%
%TO.N,MISO*%
X148080000Y-97580000D03*
%TO.P,U2,8,GDO2_8*%
%TO.N,GDO2*%
X148080000Y-95040000D03*
%TD*%
D11*
%TO.P,U1,1,GPIO0_1*%
%TO.N,GDO0*%
X136625000Y-102115000D03*
%TO.P,U1,2,GPIO1_2*%
%TO.N,GDO2*%
X136625000Y-104655000D03*
%TO.P,U1,3,GPIO2_3*%
%TO.N,unconnected-(U1-GPIO2-Pad3)*%
X136625000Y-107195000D03*
%TO.P,U1,4,GPIO3_4*%
%TO.N,unconnected-(U1-GPIO3-Pad4)*%
X136625000Y-109735000D03*
%TO.P,U1,5,GPIO4_5*%
%TO.N,SCK*%
X136625000Y-112275000D03*
%TO.P,U1,6,3V3_6*%
%TO.N,VCC*%
X136625000Y-114815000D03*
%TO.P,U1,7,GND_7*%
%TO.N,GND*%
X136625000Y-117355000D03*
%TO.P,U1,8,5V_8*%
%TO.N,unconnected-(U1-5V-Pad8)*%
X136625000Y-119895000D03*
%TO.P,U1,9,GPIO5_9*%
%TO.N,MISO*%
X151865000Y-119895000D03*
%TO.P,U1,10,GPIO6_10*%
%TO.N,MOSI*%
X151865000Y-117355000D03*
%TO.P,U1,11,GPIO7_11*%
%TO.N,SS*%
X151865000Y-114815000D03*
%TO.P,U1,12,GPIO8_12*%
%TO.N,unconnected-(U1-GPIO8-Pad12)*%
X151865000Y-112275000D03*
%TO.P,U1,13,GPIO9_13*%
%TO.N,unconnected-(U1-GPIO9-Pad13)*%
X151865000Y-109735000D03*
%TO.P,U1,14,GPIO10_14*%
%TO.N,unconnected-(U1-GPIO10-Pad14)*%
X151865000Y-107195000D03*
%TO.P,U1,15,GPIO20_15*%
%TO.N,unconnected-(U1-GPIO20-Pad15)*%
X151865000Y-104655000D03*
%TO.P,U1,16,GPIO21_16*%
%TO.N,unconnected-(U1-GPIO21-Pad16)*%
X151865000Y-102115000D03*
%TD*%
%TO.N,SCK*%
D12*
X145540000Y-103360000D02*
X136625000Y-112275000D01*
X145540000Y-97580000D02*
X145540000Y-103360000D01*
%TO.N,MOSI*%
X146740000Y-96240000D02*
X146740000Y-112230000D01*
X145540000Y-95040000D02*
X146740000Y-96240000D01*
X146740000Y-112230000D02*
X151865000Y-117355000D01*
%TO.N,MISO*%
X152735000Y-119025000D02*
X151865000Y-119895000D01*
X148080000Y-112339634D02*
X152735000Y-116994634D01*
X152735000Y-116994634D02*
X152735000Y-119025000D01*
X148080000Y-97580000D02*
X148080000Y-112339634D01*
%TO.N,GDO2*%
X148080000Y-95040000D02*
X146880000Y-93840000D01*
X142502943Y-96380000D02*
X141800000Y-97082943D01*
X141800000Y-99480000D02*
X136625000Y-104655000D01*
X145042943Y-93840000D02*
X144340000Y-94542943D01*
X144340000Y-95537057D02*
X143497057Y-96380000D01*
X143497057Y-96380000D02*
X142502943Y-96380000D01*
X141800000Y-97082943D02*
X141800000Y-99480000D01*
X146880000Y-93840000D02*
X145042943Y-93840000D01*
X144340000Y-94542943D02*
X144340000Y-95537057D01*
%TD*%
%TA.AperFunction,Conductor*%
%TO.N,GND*%
G36*
X141718322Y-95724721D02*
G01*
X141725562Y-95724100D01*
X141750439Y-95737225D01*
X141776659Y-95747434D01*
X141783890Y-95754875D01*
X141787358Y-95756705D01*
X141801256Y-95772745D01*
X141932453Y-95953324D01*
X141955933Y-96019131D01*
X141940107Y-96087184D01*
X141919816Y-96113890D01*
X141431286Y-96602421D01*
X141319481Y-96714225D01*
X141319475Y-96714233D01*
X141270204Y-96799575D01*
X141270204Y-96799576D01*
X141240423Y-96851157D01*
X141240423Y-96851158D01*
X141199499Y-97003886D01*
X141199499Y-97003888D01*
X141199499Y-97062692D01*
X141179814Y-97129731D01*
X141163180Y-97150373D01*
X140902138Y-97411415D01*
X140879333Y-97326306D01*
X140820090Y-97223694D01*
X140736306Y-97139910D01*
X140633694Y-97080667D01*
X140548583Y-97057861D01*
X141257513Y-96348932D01*
X141232319Y-96330628D01*
X141189653Y-96275298D01*
X141183674Y-96205685D01*
X141216279Y-96143889D01*
X141232313Y-96129994D01*
X141372365Y-96028242D01*
X141528242Y-95872365D01*
X141600620Y-95772743D01*
X141622901Y-95755562D01*
X141643072Y-95735960D01*
X141650193Y-95734516D01*
X141655949Y-95730079D01*
X141683978Y-95727671D01*
X141711550Y-95722085D01*
X141718322Y-95724721D01*
G37*
%TD.AperFunction*%
%TA.AperFunction,Conductor*%
G36*
X153942539Y-57520185D02*
G01*
X153988294Y-57572989D01*
X153999500Y-57624500D01*
X153999500Y-122875500D01*
X153979815Y-122942539D01*
X153927011Y-122988294D01*
X153875500Y-122999500D01*
X134624500Y-122999500D01*
X134557461Y-122979815D01*
X134511706Y-122927011D01*
X134500500Y-122875500D01*
X134500500Y-119789560D01*
X135554500Y-119789560D01*
X135554500Y-120000439D01*
X135595636Y-120207245D01*
X135595638Y-120207253D01*
X135676333Y-120402069D01*
X135676338Y-120402078D01*
X135793487Y-120577403D01*
X135793490Y-120577407D01*
X135942592Y-120726509D01*
X135942596Y-120726512D01*
X136117921Y-120843661D01*
X136117927Y-120843664D01*
X136117928Y-120843665D01*
X136312747Y-120924362D01*
X136519560Y-120965499D01*
X136519564Y-120965500D01*
X136519565Y-120965500D01*
X136730436Y-120965500D01*
X136730437Y-120965499D01*
X136937253Y-120924362D01*
X137132072Y-120843665D01*
X137307404Y-120726512D01*
X137456512Y-120577404D01*
X137573665Y-120402072D01*
X137654362Y-120207253D01*
X137695500Y-120000435D01*
X137695500Y-119789565D01*
X137654362Y-119582747D01*
X137591946Y-119432063D01*
X137573666Y-119387930D01*
X137573661Y-119387921D01*
X137456512Y-119212596D01*
X137456509Y-119212592D01*
X137307407Y-119063490D01*
X137307403Y-119063487D01*
X137132078Y-118946338D01*
X137132069Y-118946333D01*
X136937253Y-118865638D01*
X136937245Y-118865636D01*
X136730439Y-118824500D01*
X136730435Y-118824500D01*
X136519565Y-118824500D01*
X136519560Y-118824500D01*
X136312754Y-118865636D01*
X136312746Y-118865638D01*
X136117930Y-118946333D01*
X136117921Y-118946338D01*
X135942596Y-119063487D01*
X135942592Y-119063490D01*
X135793490Y-119212592D01*
X135793487Y-119212596D01*
X135676338Y-119387921D01*
X135676333Y-119387930D01*
X135595638Y-119582746D01*
X135595636Y-119582754D01*
X135554500Y-119789560D01*
X134500500Y-119789560D01*
X134500500Y-117460388D01*
X135554999Y-117460388D01*
X135596118Y-117667101D01*
X135596120Y-117667107D01*
X135676778Y-117861833D01*
X135711959Y-117914485D01*
X136207356Y-117419089D01*
X136233622Y-117517114D01*
X136288916Y-117612886D01*
X136367114Y-117691084D01*
X136462886Y-117746378D01*
X136560910Y-117772643D01*
X136065513Y-118268039D01*
X136118164Y-118303220D01*
X136118167Y-118303222D01*
X136312892Y-118383879D01*
X136312898Y-118383881D01*
X136519611Y-118425000D01*
X136730388Y-118425000D01*
X136937101Y-118383881D01*
X136937107Y-118383879D01*
X137131830Y-118303223D01*
X137184485Y-118268039D01*
X136689090Y-117772643D01*
X136787114Y-117746378D01*
X136882886Y-117691084D01*
X136961084Y-117612886D01*
X137016378Y-117517114D01*
X137042643Y-117419089D01*
X137538039Y-117914485D01*
X137573223Y-117861830D01*
X137653879Y-117667107D01*
X137653881Y-117667101D01*
X137695000Y-117460388D01*
X137695000Y-117249611D01*
X137653881Y-117042898D01*
X137653879Y-117042892D01*
X137573222Y-116848167D01*
X137573220Y-116848164D01*
X137538039Y-116795513D01*
X137042643Y-117290909D01*
X137016378Y-117192886D01*
X136961084Y-117097114D01*
X136882886Y-117018916D01*
X136787114Y-116963622D01*
X136689089Y-116937356D01*
X137184485Y-116441959D01*
X137184485Y-116441958D01*
X137131833Y-116406778D01*
X136937107Y-116326120D01*
X136937101Y-116326118D01*
X136730388Y-116285000D01*
X136519612Y-116285000D01*
X136312898Y-116326118D01*
X136312892Y-116326120D01*
X136118168Y-116406777D01*
X136118156Y-116406784D01*
X136065513Y-116441958D01*
X136065512Y-116441959D01*
X136560910Y-116937356D01*
X136462886Y-116963622D01*
X136367114Y-117018916D01*
X136288916Y-117097114D01*
X136233622Y-117192886D01*
X136207356Y-117290909D01*
X135711959Y-116795512D01*
X135711958Y-116795513D01*
X135676784Y-116848156D01*
X135676777Y-116848168D01*
X135596120Y-117042892D01*
X135596118Y-117042898D01*
X135555000Y-117249611D01*
X135555000Y-117460388D01*
X135554999Y-117460388D01*
X134500500Y-117460388D01*
X134500500Y-114709560D01*
X135554500Y-114709560D01*
X135554500Y-114920439D01*
X135595636Y-115127245D01*
X135595638Y-115127253D01*
X135676333Y-115322069D01*
X135676338Y-115322078D01*
X135793487Y-115497403D01*
X135793490Y-115497407D01*
X135942592Y-115646509D01*
X135942596Y-115646512D01*
X136117921Y-115763661D01*
X136117927Y-115763664D01*
X136117928Y-115763665D01*
X136312747Y-115844362D01*
X136519560Y-115885499D01*
X136519564Y-115885500D01*
X136519565Y-115885500D01*
X136730436Y-115885500D01*
X136730437Y-115885499D01*
X136937253Y-115844362D01*
X137132072Y-115763665D01*
X137307404Y-115646512D01*
X137456512Y-115497404D01*
X137573665Y-115322072D01*
X137654362Y-115127253D01*
X137695500Y-114920435D01*
X137695500Y-114709565D01*
X137654362Y-114502747D01*
X137573665Y-114307928D01*
X137573664Y-114307927D01*
X137573661Y-114307921D01*
X137456512Y-114132596D01*
X137456509Y-114132592D01*
X137307407Y-113983490D01*
X137307403Y-113983487D01*
X137132078Y-113866338D01*
X137132069Y-113866333D01*
X136937253Y-113785638D01*
X136937245Y-113785636D01*
X136730439Y-113744500D01*
X136730435Y-113744500D01*
X136519565Y-113744500D01*
X136519560Y-113744500D01*
X136312754Y-113785636D01*
X136312746Y-113785638D01*
X136117930Y-113866333D01*
X136117921Y-113866338D01*
X135942596Y-113983487D01*
X135942592Y-113983490D01*
X135793490Y-114132592D01*
X135793487Y-114132596D01*
X135676338Y-114307921D01*
X135676333Y-114307930D01*
X135595638Y-114502746D01*
X135595636Y-114502754D01*
X135554500Y-114709560D01*
X134500500Y-114709560D01*
X134500500Y-107089560D01*
X135554500Y-107089560D01*
X135554500Y-107300439D01*
X135595636Y-107507245D01*
X135595638Y-107507253D01*
X135676333Y-107702069D01*
X135676338Y-107702078D01*
X135793487Y-107877403D01*
X135793490Y-107877407D01*
X135942592Y-108026509D01*
X135942596Y-108026512D01*
X136117921Y-108143661D01*
X136117927Y-108143664D01*
X136117928Y-108143665D01*
X136312747Y-108224362D01*
X136519560Y-108265499D01*
X136519564Y-108265500D01*
X136519565Y-108265500D01*
X136730436Y-108265500D01*
X136730437Y-108265499D01*
X136937253Y-108224362D01*
X137132072Y-108143665D01*
X137307404Y-108026512D01*
X137456512Y-107877404D01*
X137573665Y-107702072D01*
X137654362Y-107507253D01*
X137695500Y-107300435D01*
X137695500Y-107089565D01*
X137654362Y-106882747D01*
X137573665Y-106687928D01*
X137573664Y-106687927D01*
X137573661Y-106687921D01*
X137456512Y-106512596D01*
X137456509Y-106512592D01*
X137307407Y-106363490D01*
X137307403Y-106363487D01*
X137132078Y-106246338D01*
X137132069Y-106246333D01*
X136937253Y-106165638D01*
X136937245Y-106165636D01*
X136730439Y-106124500D01*
X136730435Y-106124500D01*
X136519565Y-106124500D01*
X136519560Y-106124500D01*
X136312754Y-106165636D01*
X136312746Y-106165638D01*
X136117930Y-106246333D01*
X136117921Y-106246338D01*
X135942596Y-106363487D01*
X135942592Y-106363490D01*
X135793490Y-106512592D01*
X135793487Y-106512596D01*
X135676338Y-106687921D01*
X135676333Y-106687930D01*
X135595638Y-106882746D01*
X135595636Y-106882754D01*
X135554500Y-107089560D01*
X134500500Y-107089560D01*
X134500500Y-102009560D01*
X135554500Y-102009560D01*
X135554500Y-102220439D01*
X135595636Y-102427245D01*
X135595638Y-102427253D01*
X135676333Y-102622069D01*
X135676338Y-102622078D01*
X135793487Y-102797403D01*
X135793490Y-102797407D01*
X135942592Y-102946509D01*
X135942596Y-102946512D01*
X136117921Y-103063661D01*
X136117927Y-103063664D01*
X136117928Y-103063665D01*
X136312747Y-103144362D01*
X136519560Y-103185499D01*
X136519564Y-103185500D01*
X136519565Y-103185500D01*
X136730436Y-103185500D01*
X136730437Y-103185499D01*
X136937253Y-103144362D01*
X136957352Y-103136036D01*
X137026817Y-103128567D01*
X137089297Y-103159839D01*
X137124951Y-103219927D01*
X137122460Y-103289752D01*
X137092485Y-103338278D01*
X136873913Y-103556850D01*
X136812590Y-103590335D01*
X136762042Y-103590787D01*
X136730435Y-103584500D01*
X136519565Y-103584500D01*
X136519560Y-103584500D01*
X136312754Y-103625636D01*
X136312746Y-103625638D01*
X136117930Y-103706333D01*
X136117921Y-103706338D01*
X135942596Y-103823487D01*
X135942592Y-103823490D01*
X135793490Y-103972592D01*
X135793487Y-103972596D01*
X135676338Y-104147921D01*
X135676333Y-104147930D01*
X135595638Y-104342746D01*
X135595636Y-104342754D01*
X135554500Y-104549560D01*
X135554500Y-104760439D01*
X135595636Y-104967245D01*
X135595638Y-104967253D01*
X135676333Y-105162069D01*
X135676338Y-105162078D01*
X135793487Y-105337403D01*
X135793490Y-105337407D01*
X135942592Y-105486509D01*
X135942596Y-105486512D01*
X136117921Y-105603661D01*
X136117927Y-105603664D01*
X136117928Y-105603665D01*
X136312747Y-105684362D01*
X136519560Y-105725499D01*
X136519564Y-105725500D01*
X136519565Y-105725500D01*
X136730436Y-105725500D01*
X136730437Y-105725499D01*
X136937253Y-105684362D01*
X137132072Y-105603665D01*
X137307404Y-105486512D01*
X137456512Y-105337404D01*
X137573665Y-105162072D01*
X137654362Y-104967253D01*
X137695500Y-104760435D01*
X137695500Y-104549565D01*
X137695500Y-104549564D01*
X137695500Y-104549562D01*
X137689213Y-104517957D01*
X137695440Y-104448365D01*
X137723147Y-104406086D01*
X142168713Y-99960521D01*
X142168716Y-99960520D01*
X142280520Y-99848716D01*
X142330639Y-99761904D01*
X142359577Y-99711785D01*
X142400500Y-99559057D01*
X142400500Y-99400943D01*
X142400500Y-99028455D01*
X142420185Y-98961416D01*
X142472989Y-98915661D01*
X142542147Y-98905717D01*
X142562815Y-98910523D01*
X142672049Y-98946015D01*
X142889778Y-98980500D01*
X142889779Y-98980500D01*
X143110221Y-98980500D01*
X143110222Y-98980500D01*
X143327951Y-98946015D01*
X143537606Y-98877895D01*
X143734022Y-98777815D01*
X143912365Y-98648242D01*
X144068242Y-98492365D01*
X144078804Y-98477826D01*
X144169682Y-98352745D01*
X144225011Y-98310079D01*
X144294625Y-98304100D01*
X144356420Y-98336705D01*
X144370318Y-98352745D01*
X144471752Y-98492358D01*
X144471756Y-98492363D01*
X144627636Y-98648243D01*
X144627641Y-98648247D01*
X144805976Y-98777814D01*
X144871794Y-98811350D01*
X144922591Y-98859324D01*
X144939500Y-98921835D01*
X144939500Y-103059902D01*
X144919815Y-103126941D01*
X144903181Y-103147583D01*
X137848278Y-110202485D01*
X137786955Y-110235970D01*
X137717263Y-110230986D01*
X137661330Y-110189114D01*
X137636913Y-110123650D01*
X137646036Y-110067353D01*
X137654362Y-110047253D01*
X137695500Y-109840435D01*
X137695500Y-109629565D01*
X137654362Y-109422747D01*
X137573665Y-109227928D01*
X137573664Y-109227927D01*
X137573661Y-109227921D01*
X137456512Y-109052596D01*
X137456509Y-109052592D01*
X137307407Y-108903490D01*
X137307403Y-108903487D01*
X137132078Y-108786338D01*
X137132069Y-108786333D01*
X136937253Y-108705638D01*
X136937245Y-108705636D01*
X136730439Y-108664500D01*
X136730435Y-108664500D01*
X136519565Y-108664500D01*
X136519560Y-108664500D01*
X136312754Y-108705636D01*
X136312746Y-108705638D01*
X136117930Y-108786333D01*
X136117921Y-108786338D01*
X135942596Y-108903487D01*
X135942592Y-108903490D01*
X135793490Y-109052592D01*
X135793487Y-109052596D01*
X135676338Y-109227921D01*
X135676333Y-109227930D01*
X135595638Y-109422746D01*
X135595636Y-109422754D01*
X135554500Y-109629560D01*
X135554500Y-109840439D01*
X135595636Y-110047245D01*
X135595638Y-110047253D01*
X135676333Y-110242069D01*
X135676338Y-110242078D01*
X135793487Y-110417403D01*
X135793490Y-110417407D01*
X135942592Y-110566509D01*
X135942596Y-110566512D01*
X136117921Y-110683661D01*
X136117927Y-110683664D01*
X136117928Y-110683665D01*
X136312747Y-110764362D01*
X136519560Y-110805499D01*
X136519564Y-110805500D01*
X136519565Y-110805500D01*
X136730436Y-110805500D01*
X136730437Y-110805499D01*
X136937253Y-110764362D01*
X136957352Y-110756036D01*
X137026817Y-110748567D01*
X137089297Y-110779839D01*
X137124951Y-110839927D01*
X137122460Y-110909752D01*
X137092485Y-110958278D01*
X136873913Y-111176850D01*
X136812590Y-111210335D01*
X136762042Y-111210787D01*
X136730435Y-111204500D01*
X136519565Y-111204500D01*
X136519560Y-111204500D01*
X136312754Y-111245636D01*
X136312746Y-111245638D01*
X136117930Y-111326333D01*
X136117921Y-111326338D01*
X135942596Y-111443487D01*
X135942592Y-111443490D01*
X135793490Y-111592592D01*
X135793487Y-111592596D01*
X135676338Y-111767921D01*
X135676333Y-111767930D01*
X135595638Y-111962746D01*
X135595636Y-111962754D01*
X135554500Y-112169560D01*
X135554500Y-112380439D01*
X135595636Y-112587245D01*
X135595638Y-112587253D01*
X135676333Y-112782069D01*
X135676338Y-112782078D01*
X135793487Y-112957403D01*
X135793490Y-112957407D01*
X135942592Y-113106509D01*
X135942596Y-113106512D01*
X136117921Y-113223661D01*
X136117927Y-113223664D01*
X136117928Y-113223665D01*
X136312747Y-113304362D01*
X136519560Y-113345499D01*
X136519564Y-113345500D01*
X136519565Y-113345500D01*
X136730436Y-113345500D01*
X136730437Y-113345499D01*
X136937253Y-113304362D01*
X137132072Y-113223665D01*
X137307404Y-113106512D01*
X137456512Y-112957404D01*
X137573665Y-112782072D01*
X137654362Y-112587253D01*
X137695500Y-112380435D01*
X137695500Y-112169565D01*
X137695500Y-112169564D01*
X137695500Y-112169562D01*
X137689213Y-112137957D01*
X137695440Y-112068365D01*
X137723147Y-112026086D01*
X145908713Y-103840521D01*
X145908716Y-103840520D01*
X145927825Y-103821410D01*
X145970021Y-103798372D01*
X145989142Y-103787932D01*
X145989144Y-103787932D01*
X145989148Y-103787930D01*
X146031470Y-103790959D01*
X146058834Y-103792916D01*
X146058836Y-103792917D01*
X146058840Y-103792918D01*
X146089828Y-103816118D01*
X146114767Y-103834788D01*
X146114768Y-103834790D01*
X146114771Y-103834793D01*
X146130224Y-103876232D01*
X146139184Y-103900252D01*
X146139184Y-103900255D01*
X146139185Y-103900258D01*
X146139184Y-103900261D01*
X146139500Y-103909098D01*
X146139500Y-112143330D01*
X146139499Y-112143348D01*
X146139499Y-112309054D01*
X146139498Y-112309054D01*
X146180424Y-112461789D01*
X146180425Y-112461790D01*
X146206403Y-112506784D01*
X146206405Y-112506786D01*
X146259479Y-112598714D01*
X146259481Y-112598717D01*
X146378349Y-112717585D01*
X146378355Y-112717590D01*
X150766850Y-117106085D01*
X150800335Y-117167408D01*
X150800787Y-117217955D01*
X150794500Y-117249564D01*
X150794500Y-117460439D01*
X150835636Y-117667245D01*
X150835638Y-117667253D01*
X150916333Y-117862069D01*
X150916338Y-117862078D01*
X151033487Y-118037403D01*
X151033490Y-118037407D01*
X151182592Y-118186509D01*
X151182596Y-118186512D01*
X151357921Y-118303661D01*
X151357927Y-118303664D01*
X151357928Y-118303665D01*
X151552747Y-118384362D01*
X151753130Y-118424220D01*
X151759560Y-118425499D01*
X151759564Y-118425500D01*
X151759565Y-118425500D01*
X151970437Y-118425500D01*
X151986308Y-118422343D01*
X152007292Y-118424220D01*
X152028147Y-118421222D01*
X152041394Y-118427272D01*
X152055900Y-118428570D01*
X152072537Y-118441494D01*
X152091703Y-118450247D01*
X152099577Y-118462499D01*
X152111077Y-118471433D01*
X152118085Y-118491299D01*
X152129477Y-118509025D01*
X152133011Y-118533607D01*
X152134322Y-118537322D01*
X152134500Y-118543960D01*
X152134500Y-118706040D01*
X152114815Y-118773079D01*
X152062011Y-118818834D01*
X151992853Y-118828778D01*
X151986309Y-118827657D01*
X151970439Y-118824500D01*
X151970435Y-118824500D01*
X151759565Y-118824500D01*
X151759560Y-118824500D01*
X151552754Y-118865636D01*
X151552746Y-118865638D01*
X151357930Y-118946333D01*
X151357921Y-118946338D01*
X151182596Y-119063487D01*
X151182592Y-119063490D01*
X151033490Y-119212592D01*
X151033487Y-119212596D01*
X150916338Y-119387921D01*
X150916333Y-119387930D01*
X150835638Y-119582746D01*
X150835636Y-119582754D01*
X150794500Y-119789560D01*
X150794500Y-120000439D01*
X150835636Y-120207245D01*
X150835638Y-120207253D01*
X150916333Y-120402069D01*
X150916338Y-120402078D01*
X151033487Y-120577403D01*
X151033490Y-120577407D01*
X151182592Y-120726509D01*
X151182596Y-120726512D01*
X151357921Y-120843661D01*
X151357927Y-120843664D01*
X151357928Y-120843665D01*
X151552747Y-120924362D01*
X151759560Y-120965499D01*
X151759564Y-120965500D01*
X151759565Y-120965500D01*
X151970436Y-120965500D01*
X151970437Y-120965499D01*
X152177253Y-120924362D01*
X152372072Y-120843665D01*
X152547404Y-120726512D01*
X152696512Y-120577404D01*
X152813665Y-120402072D01*
X152894362Y-120207253D01*
X152935500Y-120000435D01*
X152935500Y-119789565D01*
X152929213Y-119757958D01*
X152935440Y-119688367D01*
X152963146Y-119646087D01*
X153215520Y-119393716D01*
X153294577Y-119256785D01*
X153335501Y-119104057D01*
X153335501Y-118945942D01*
X153335501Y-118938347D01*
X153335500Y-118938329D01*
X153335500Y-116915579D01*
X153335500Y-116915577D01*
X153294577Y-116762850D01*
X153294577Y-116762849D01*
X153242469Y-116672596D01*
X153215520Y-116625918D01*
X153103716Y-116514114D01*
X153103713Y-116514112D01*
X152467638Y-115878037D01*
X152434153Y-115816714D01*
X152439137Y-115747022D01*
X152481009Y-115691089D01*
X152486417Y-115687261D01*
X152547404Y-115646512D01*
X152696512Y-115497404D01*
X152813665Y-115322072D01*
X152894362Y-115127253D01*
X152935500Y-114920435D01*
X152935500Y-114709565D01*
X152894362Y-114502747D01*
X152813665Y-114307928D01*
X152813664Y-114307927D01*
X152813661Y-114307921D01*
X152696512Y-114132596D01*
X152696509Y-114132592D01*
X152547407Y-113983490D01*
X152547403Y-113983487D01*
X152372078Y-113866338D01*
X152372069Y-113866333D01*
X152177253Y-113785638D01*
X152177245Y-113785636D01*
X151970439Y-113744500D01*
X151970435Y-113744500D01*
X151759565Y-113744500D01*
X151759560Y-113744500D01*
X151552754Y-113785636D01*
X151552746Y-113785638D01*
X151357930Y-113866333D01*
X151357921Y-113866338D01*
X151182596Y-113983487D01*
X151182592Y-113983490D01*
X151033490Y-114132592D01*
X151033487Y-114132596D01*
X150992745Y-114193571D01*
X150939132Y-114238376D01*
X150869807Y-114247083D01*
X150806780Y-114216928D01*
X150801962Y-114212361D01*
X148759161Y-112169560D01*
X150794500Y-112169560D01*
X150794500Y-112380439D01*
X150835636Y-112587245D01*
X150835638Y-112587253D01*
X150916333Y-112782069D01*
X150916338Y-112782078D01*
X151033487Y-112957403D01*
X151033490Y-112957407D01*
X151182592Y-113106509D01*
X151182596Y-113106512D01*
X151357921Y-113223661D01*
X151357927Y-113223664D01*
X151357928Y-113223665D01*
X151552747Y-113304362D01*
X151759560Y-113345499D01*
X151759564Y-113345500D01*
X151759565Y-113345500D01*
X151970436Y-113345500D01*
X151970437Y-113345499D01*
X152177253Y-113304362D01*
X152372072Y-113223665D01*
X152547404Y-113106512D01*
X152696512Y-112957404D01*
X152813665Y-112782072D01*
X152894362Y-112587253D01*
X152935500Y-112380435D01*
X152935500Y-112169565D01*
X152935499Y-112169562D01*
X152935499Y-112169560D01*
X152927077Y-112127218D01*
X152894362Y-111962747D01*
X152813665Y-111767928D01*
X152813664Y-111767927D01*
X152813661Y-111767921D01*
X152696512Y-111592596D01*
X152696509Y-111592592D01*
X152547407Y-111443490D01*
X152547403Y-111443487D01*
X152372078Y-111326338D01*
X152372069Y-111326333D01*
X152177253Y-111245638D01*
X152177245Y-111245636D01*
X151970439Y-111204500D01*
X151970435Y-111204500D01*
X151759565Y-111204500D01*
X151759560Y-111204500D01*
X151552754Y-111245636D01*
X151552746Y-111245638D01*
X151357930Y-111326333D01*
X151357921Y-111326338D01*
X151182596Y-111443487D01*
X151182592Y-111443490D01*
X151033490Y-111592592D01*
X151033487Y-111592596D01*
X150916338Y-111767921D01*
X150916333Y-111767930D01*
X150835638Y-111962746D01*
X150835636Y-111962754D01*
X150794500Y-112169560D01*
X148759161Y-112169560D01*
X148716819Y-112127218D01*
X148683334Y-112065895D01*
X148680500Y-112039537D01*
X148680500Y-109629560D01*
X150794500Y-109629560D01*
X150794500Y-109840439D01*
X150835636Y-110047245D01*
X150835638Y-110047253D01*
X150916333Y-110242069D01*
X150916338Y-110242078D01*
X151033487Y-110417403D01*
X151033490Y-110417407D01*
X151182592Y-110566509D01*
X151182596Y-110566512D01*
X151357921Y-110683661D01*
X151357927Y-110683664D01*
X151357928Y-110683665D01*
X151552747Y-110764362D01*
X151759560Y-110805499D01*
X151759564Y-110805500D01*
X151759565Y-110805500D01*
X151970436Y-110805500D01*
X151970437Y-110805499D01*
X152177253Y-110764362D01*
X152372072Y-110683665D01*
X152547404Y-110566512D01*
X152696512Y-110417404D01*
X152813665Y-110242072D01*
X152894362Y-110047253D01*
X152935500Y-109840435D01*
X152935500Y-109629565D01*
X152894362Y-109422747D01*
X152813665Y-109227928D01*
X152813664Y-109227927D01*
X152813661Y-109227921D01*
X152696512Y-109052596D01*
X152696509Y-109052592D01*
X152547407Y-108903490D01*
X152547403Y-108903487D01*
X152372078Y-108786338D01*
X152372069Y-108786333D01*
X152177253Y-108705638D01*
X152177245Y-108705636D01*
X151970439Y-108664500D01*
X151970435Y-108664500D01*
X151759565Y-108664500D01*
X151759560Y-108664500D01*
X151552754Y-108705636D01*
X151552746Y-108705638D01*
X151357930Y-108786333D01*
X151357921Y-108786338D01*
X151182596Y-108903487D01*
X151182592Y-108903490D01*
X151033490Y-109052592D01*
X151033487Y-109052596D01*
X150916338Y-109227921D01*
X150916333Y-109227930D01*
X150835638Y-109422746D01*
X150835636Y-109422754D01*
X150794500Y-109629560D01*
X148680500Y-109629560D01*
X148680500Y-107089560D01*
X150794500Y-107089560D01*
X150794500Y-107300439D01*
X150835636Y-107507245D01*
X150835638Y-107507253D01*
X150916333Y-107702069D01*
X150916338Y-107702078D01*
X151033487Y-107877403D01*
X151033490Y-107877407D01*
X151182592Y-108026509D01*
X151182596Y-108026512D01*
X151357921Y-108143661D01*
X151357927Y-108143664D01*
X151357928Y-108143665D01*
X151552747Y-108224362D01*
X151759560Y-108265499D01*
X151759564Y-108265500D01*
X151759565Y-108265500D01*
X151970436Y-108265500D01*
X151970437Y-108265499D01*
X152177253Y-108224362D01*
X152372072Y-108143665D01*
X152547404Y-108026512D01*
X152696512Y-107877404D01*
X152813665Y-107702072D01*
X152894362Y-107507253D01*
X152935500Y-107300435D01*
X152935500Y-107089565D01*
X152894362Y-106882747D01*
X152813665Y-106687928D01*
X152813664Y-106687927D01*
X152813661Y-106687921D01*
X152696512Y-106512596D01*
X152696509Y-106512592D01*
X152547407Y-106363490D01*
X152547403Y-106363487D01*
X152372078Y-106246338D01*
X152372069Y-106246333D01*
X152177253Y-106165638D01*
X152177245Y-106165636D01*
X151970439Y-106124500D01*
X151970435Y-106124500D01*
X151759565Y-106124500D01*
X151759560Y-106124500D01*
X151552754Y-106165636D01*
X151552746Y-106165638D01*
X151357930Y-106246333D01*
X151357921Y-106246338D01*
X151182596Y-106363487D01*
X151182592Y-106363490D01*
X151033490Y-106512592D01*
X151033487Y-106512596D01*
X150916338Y-106687921D01*
X150916333Y-106687930D01*
X150835638Y-106882746D01*
X150835636Y-106882754D01*
X150794500Y-107089560D01*
X148680500Y-107089560D01*
X148680500Y-104549560D01*
X150794500Y-104549560D01*
X150794500Y-104760439D01*
X150835636Y-104967245D01*
X150835638Y-104967253D01*
X150916333Y-105162069D01*
X150916338Y-105162078D01*
X151033487Y-105337403D01*
X151033490Y-105337407D01*
X151182592Y-105486509D01*
X151182596Y-105486512D01*
X151357921Y-105603661D01*
X151357927Y-105603664D01*
X151357928Y-105603665D01*
X151552747Y-105684362D01*
X151759560Y-105725499D01*
X151759564Y-105725500D01*
X151759565Y-105725500D01*
X151970436Y-105725500D01*
X151970437Y-105725499D01*
X152177253Y-105684362D01*
X152372072Y-105603665D01*
X152547404Y-105486512D01*
X152696512Y-105337404D01*
X152813665Y-105162072D01*
X152894362Y-104967253D01*
X152935500Y-104760435D01*
X152935500Y-104549565D01*
X152935499Y-104549562D01*
X152935499Y-104549560D01*
X152894363Y-104342754D01*
X152894362Y-104342747D01*
X152813665Y-104147928D01*
X152813664Y-104147927D01*
X152813661Y-104147921D01*
X152696512Y-103972596D01*
X152696509Y-103972592D01*
X152547407Y-103823490D01*
X152547403Y-103823487D01*
X152372078Y-103706338D01*
X152372069Y-103706333D01*
X152177253Y-103625638D01*
X152177245Y-103625636D01*
X151970439Y-103584500D01*
X151970435Y-103584500D01*
X151759565Y-103584500D01*
X151759560Y-103584500D01*
X151552754Y-103625636D01*
X151552746Y-103625638D01*
X151357930Y-103706333D01*
X151357921Y-103706338D01*
X151182596Y-103823487D01*
X151182592Y-103823490D01*
X151033490Y-103972592D01*
X151033487Y-103972596D01*
X150916338Y-104147921D01*
X150916333Y-104147930D01*
X150835638Y-104342746D01*
X150835636Y-104342754D01*
X150794500Y-104549560D01*
X148680500Y-104549560D01*
X148680500Y-102009560D01*
X150794500Y-102009560D01*
X150794500Y-102220439D01*
X150835636Y-102427245D01*
X150835638Y-102427253D01*
X150916333Y-102622069D01*
X150916338Y-102622078D01*
X151033487Y-102797403D01*
X151033490Y-102797407D01*
X151182592Y-102946509D01*
X151182596Y-102946512D01*
X151357921Y-103063661D01*
X151357927Y-103063664D01*
X151357928Y-103063665D01*
X151552747Y-103144362D01*
X151759560Y-103185499D01*
X151759564Y-103185500D01*
X151759565Y-103185500D01*
X151970436Y-103185500D01*
X151970437Y-103185499D01*
X152177253Y-103144362D01*
X152372072Y-103063665D01*
X152547404Y-102946512D01*
X152696512Y-102797404D01*
X152813665Y-102622072D01*
X152894362Y-102427253D01*
X152935500Y-102220435D01*
X152935500Y-102009565D01*
X152894362Y-101802747D01*
X152813665Y-101607928D01*
X152813664Y-101607927D01*
X152813661Y-101607921D01*
X152696512Y-101432596D01*
X152696509Y-101432592D01*
X152547407Y-101283490D01*
X152547403Y-101283487D01*
X152372078Y-101166338D01*
X152372069Y-101166333D01*
X152177253Y-101085638D01*
X152177245Y-101085636D01*
X151970439Y-101044500D01*
X151970435Y-101044500D01*
X151759565Y-101044500D01*
X151759560Y-101044500D01*
X151552754Y-101085636D01*
X151552746Y-101085638D01*
X151357930Y-101166333D01*
X151357921Y-101166338D01*
X151182596Y-101283487D01*
X151182592Y-101283490D01*
X151033490Y-101432592D01*
X151033487Y-101432596D01*
X150916338Y-101607921D01*
X150916333Y-101607930D01*
X150835638Y-101802746D01*
X150835636Y-101802754D01*
X150794500Y-102009560D01*
X148680500Y-102009560D01*
X148680500Y-98921835D01*
X148700185Y-98854796D01*
X148748206Y-98811350D01*
X148748547Y-98811175D01*
X148814022Y-98777815D01*
X148992365Y-98648242D01*
X149148242Y-98492365D01*
X149277815Y-98314022D01*
X149377895Y-98117606D01*
X149446015Y-97907951D01*
X149480500Y-97690222D01*
X149480500Y-97469778D01*
X149446015Y-97252049D01*
X149406272Y-97129731D01*
X149377896Y-97042396D01*
X149377895Y-97042393D01*
X149337232Y-96962589D01*
X149277815Y-96845978D01*
X149244102Y-96799576D01*
X149148247Y-96667641D01*
X149148243Y-96667636D01*
X148992363Y-96511756D01*
X148992358Y-96511752D01*
X148852745Y-96410318D01*
X148810079Y-96354989D01*
X148804100Y-96285375D01*
X148836705Y-96223580D01*
X148852745Y-96209682D01*
X148992358Y-96108247D01*
X148992356Y-96108247D01*
X148992365Y-96108242D01*
X149148242Y-95952365D01*
X149277815Y-95774022D01*
X149377895Y-95577606D01*
X149446015Y-95367951D01*
X149480500Y-95150222D01*
X149480500Y-94929778D01*
X149446015Y-94712049D01*
X149377895Y-94502394D01*
X149377895Y-94502393D01*
X149343237Y-94434375D01*
X149277815Y-94305978D01*
X149255961Y-94275899D01*
X149148247Y-94127641D01*
X149148243Y-94127636D01*
X148992363Y-93971756D01*
X148992358Y-93971752D01*
X148814025Y-93842187D01*
X148814024Y-93842186D01*
X148814022Y-93842185D01*
X148751096Y-93810122D01*
X148617606Y-93742104D01*
X148617603Y-93742103D01*
X148407952Y-93673985D01*
X148299086Y-93656742D01*
X148190222Y-93639500D01*
X147969778Y-93639500D01*
X147926232Y-93646397D01*
X147752045Y-93673985D01*
X147681794Y-93696811D01*
X147611953Y-93698806D01*
X147555796Y-93666561D01*
X147367590Y-93478355D01*
X147367588Y-93478352D01*
X147248717Y-93359481D01*
X147248716Y-93359480D01*
X147161904Y-93309360D01*
X147161904Y-93309359D01*
X147161900Y-93309358D01*
X147111785Y-93280423D01*
X146959057Y-93239499D01*
X146800943Y-93239499D01*
X146793347Y-93239499D01*
X146793331Y-93239500D01*
X145129613Y-93239500D01*
X145129597Y-93239499D01*
X145122001Y-93239499D01*
X144963886Y-93239499D01*
X144887522Y-93259961D01*
X144811157Y-93280423D01*
X144811152Y-93280426D01*
X144674233Y-93359475D01*
X144674225Y-93359481D01*
X144073890Y-93959816D01*
X144012567Y-93993301D01*
X143942875Y-93988317D01*
X143913324Y-93972454D01*
X143734021Y-93842184D01*
X143537606Y-93742104D01*
X143537603Y-93742103D01*
X143327952Y-93673985D01*
X143219086Y-93656742D01*
X143110222Y-93639500D01*
X142889778Y-93639500D01*
X142817201Y-93650995D01*
X142672047Y-93673985D01*
X142462396Y-93742103D01*
X142462393Y-93742104D01*
X142265974Y-93842187D01*
X142087641Y-93971752D01*
X142087636Y-93971756D01*
X141931756Y-94127636D01*
X141859379Y-94227255D01*
X141804049Y-94269920D01*
X141734435Y-94275899D01*
X141672640Y-94243293D01*
X141658743Y-94227254D01*
X141528247Y-94047641D01*
X141528243Y-94047636D01*
X141372363Y-93891756D01*
X141372358Y-93891752D01*
X141194025Y-93762187D01*
X141194024Y-93762186D01*
X141194022Y-93762185D01*
X141131096Y-93730122D01*
X140997606Y-93662104D01*
X140997603Y-93662103D01*
X140787952Y-93593985D01*
X140679086Y-93576742D01*
X140570222Y-93559500D01*
X140349778Y-93559500D01*
X140277201Y-93570995D01*
X140132047Y-93593985D01*
X139922396Y-93662103D01*
X139922393Y-93662104D01*
X139725974Y-93762187D01*
X139547641Y-93891752D01*
X139547636Y-93891756D01*
X139391756Y-94047636D01*
X139391752Y-94047641D01*
X139262187Y-94225974D01*
X139162104Y-94422393D01*
X139162103Y-94422396D01*
X139093985Y-94632047D01*
X139059500Y-94849778D01*
X139059500Y-95070221D01*
X139093985Y-95287952D01*
X139162103Y-95497603D01*
X139162104Y-95497606D01*
X139262187Y-95694025D01*
X139391752Y-95872358D01*
X139391756Y-95872363D01*
X139547640Y-96028247D01*
X139687679Y-96129990D01*
X139730345Y-96185319D01*
X139736324Y-96254933D01*
X139703719Y-96316728D01*
X139687679Y-96330626D01*
X139662485Y-96348930D01*
X139662485Y-96348932D01*
X140371414Y-97057861D01*
X140286306Y-97080667D01*
X140183694Y-97139910D01*
X140099910Y-97223694D01*
X140040667Y-97326306D01*
X140017861Y-97411414D01*
X139308932Y-96702485D01*
X139308931Y-96702485D01*
X139262616Y-96766233D01*
X139162567Y-96962589D01*
X139094473Y-97172164D01*
X139060000Y-97389818D01*
X139060000Y-97610181D01*
X139094473Y-97827835D01*
X139162567Y-98037410D01*
X139262611Y-98233756D01*
X139308932Y-98297513D01*
X140017861Y-97588584D01*
X140040667Y-97673694D01*
X140099910Y-97776306D01*
X140183694Y-97860090D01*
X140286306Y-97919333D01*
X140371414Y-97942138D01*
X139662485Y-98651065D01*
X139662485Y-98651066D01*
X139726243Y-98697388D01*
X139922589Y-98797432D01*
X140132164Y-98865526D01*
X140349819Y-98900000D01*
X140570181Y-98900000D01*
X140787835Y-98865526D01*
X140997409Y-98797432D01*
X141019203Y-98786328D01*
X141087872Y-98773431D01*
X141152613Y-98799706D01*
X141192871Y-98856812D01*
X141199500Y-98896812D01*
X141199500Y-99179902D01*
X141179815Y-99246941D01*
X141163181Y-99267583D01*
X137848278Y-102582485D01*
X137786955Y-102615970D01*
X137717263Y-102610986D01*
X137661330Y-102569114D01*
X137636913Y-102503650D01*
X137646036Y-102447353D01*
X137654362Y-102427253D01*
X137695500Y-102220435D01*
X137695500Y-102009565D01*
X137654362Y-101802747D01*
X137573665Y-101607928D01*
X137573664Y-101607927D01*
X137573661Y-101607921D01*
X137456512Y-101432596D01*
X137456509Y-101432592D01*
X137307407Y-101283490D01*
X137307403Y-101283487D01*
X137132078Y-101166338D01*
X137132069Y-101166333D01*
X136937253Y-101085638D01*
X136937245Y-101085636D01*
X136730439Y-101044500D01*
X136730435Y-101044500D01*
X136519565Y-101044500D01*
X136519560Y-101044500D01*
X136312754Y-101085636D01*
X136312746Y-101085638D01*
X136117930Y-101166333D01*
X136117921Y-101166338D01*
X135942596Y-101283487D01*
X135942592Y-101283490D01*
X135793490Y-101432592D01*
X135793487Y-101432596D01*
X135676338Y-101607921D01*
X135676333Y-101607930D01*
X135595638Y-101802746D01*
X135595636Y-101802754D01*
X135554500Y-102009560D01*
X134500500Y-102009560D01*
X134500500Y-57624500D01*
X134520185Y-57557461D01*
X134572989Y-57511706D01*
X134624500Y-57500500D01*
X153875500Y-57500500D01*
X153942539Y-57520185D01*
G37*
%TD.AperFunction*%
%TD*%
M02*
